<mxfile host="app.diagrams.net" modified="2024-07-17T23:55:58.272Z" agent="Mozilla/5.0 (Windows NT 10.0; Win64; x64) AppleWebKit/537.36 (KHTML, like Gecko) Chrome/126.0.0.0 Safari/537.36" version="24.7.1" etag="8keGKyA4_u5jvvTciUcX" type="github">
  <diagram name="Page-1" id="VFVUPLAsmNXirqsWFjSJ">
    <mxGraphModel>
      <root>
        <mxCell id="0" />
        <mxCell id="1" parent="0" />
      </root>
    </mxGraphModel>
  </diagram>
</mxfile>
